<?xml version="1.0" encoding="utf-8"?>
<!-- Generator: Adobe Illustrator 25.0.0, SVG Export Plug-In . SVG Version: 6.00 Build 0)  -->
<svg version="1.1"
	 id="svg8" inkscape:version="0.92.0 r15299" sodipodi:docname="Flat Night 2.svg" xmlns:cc="http://creativecommons.org/ns#" xmlns:dc="http://purl.org/dc/elements/1.1/" xmlns:inkscape="http://www.inkscape.org/namespaces/inkscape" xmlns:rdf="http://www.w3.org/1999/02/22-rdf-syntax-ns#" xmlns:sodipodi="http://sodipodi.sourceforge.net/DTD/sodipodi-0.dtd" xmlns:svg="http://www.w3.org/2000/svg"
	 xmlns="http://www.w3.org/2000/svg" xmlns:xlink="http://www.w3.org/1999/xlink" x="0px" y="0px" viewBox="0 0 960 540"
	 style="enable-background:new 0 0 960 540;" xml:space="preserve">
<style type="text/css">
	.st0{fill:url(#rect4509_1_);}
	.st1{fill-rule:evenodd;clip-rule:evenodd;fill:#1695A1;fill-opacity:0.1167;}
	.st2{fill-rule:evenodd;clip-rule:evenodd;fill:#1BBAC7;fill-opacity:0.4556;}
	.st3{filter:url(#filter4735);}
	.st4{fill:url(#SVGID_1_);}
	.st5{fill:#322758;}
	.st6{fill:#311D3E;}
	.st7{fill:#FFFFFF;}
</style>
<filter  height="1.3097424" id="filter4735" inkscape:collect="always" style="color-interpolation-filters:sRGB" width="1.2682448" x="-0.13412241" y="-0.15487121">
	<feGaussianBlur  id="feGaussianBlur4737" inkscape:collect="always" stdDeviation="7.7679183"></feGaussianBlur>
</filter>
<sodipodi:namedview  bordercolor="#666666" borderopacity="1.0" id="base" inkscape:current-layer="layer1" inkscape:cx="-708.3685" inkscape:cy="1063.8725" inkscape:document-units="px" inkscape:pageopacity="0.0" inkscape:pageshadow="2" inkscape:snap-global="false" inkscape:window-height="705" inkscape:window-maximized="1" inkscape:window-width="1366" inkscape:window-x="-8" inkscape:window-y="-8" inkscape:zoom="0.41274109" pagecolor="#ffffff" showborder="false" showgrid="false">
	</sodipodi:namedview>
<g id="layer1" inkscape:groupmode="layer" inkscape:label="Layer 1">
	
		<g id="g4959" inkscape:export-filename="E:\Games\Inkscape Videos\Flat Night 2 BG\Flat Night 2 BG.png" inkscape:export-xdpi="96" inkscape:export-ydpi="96">
		
			<linearGradient id="rect4509_1_" gradientUnits="userSpaceOnUse" x1="535.257" y1="453.5417" x2="535.3026" y2="650.6689" gradientTransform="matrix(2.8346 0 0 -2.8346 -1037.3053 1734.6101)">
			<stop  offset="0" style="stop-color:#78E2EC"/>
			<stop  offset="1" style="stop-color:#254C65"/>
		</linearGradient>
		<rect id="rect4509" class="st0" width="960" height="540"/>
		<path id="path4704" inkscape:connector-curvature="0" class="st1" d="M253.1,389.8L0,457.5V540h960V438.8l-128.7-34.9l-254.4,89.9
			L253.1,389.8z"/>
		<path id="path4699" inkscape:connector-curvature="0" class="st2" d="M0,397.2V540h960V409.9l-244.3,36.4L487,412.9l-204.3,52.7
			L0,397.2z"/>
		
			<g id="path4709" inkscape:flatsided="true" inkscape:randomized="0" inkscape:rounded="0" inkscape:transform-center-x="-1.8896931e-005" inkscape:transform-center-y="-20.412496" sodipodi:arg1="-1.5707963" sodipodi:arg2="-0.52359878" sodipodi:cx="-166.59773" sodipodi:cy="54.040112" sodipodi:r1="80.25164" sodipodi:r2="40.12582" sodipodi:sides="3" sodipodi:type="star" class="st3">
			
				<linearGradient id="SVGID_1_" gradientUnits="userSpaceOnUse" x1="480.2421" y1="447.1901" x2="481.1487" y2="574.6917" gradientTransform="matrix(3.9126 0 0 -2.884 -1481.9677 1702.9486)">
				<stop  offset="0" style="stop-color:#74F1FC;stop-opacity:0.7222"/>
				<stop  offset="1" style="stop-color:#25DBEB;stop-opacity:0"/>
			</linearGradient>
			<polygon class="st4" points="397,67.9 668.9,415 125.1,415 			"/>
		</g>
		<rect id="rect4521" x="69.1" class="st5" width="75" height="540"/>
		<rect id="rect4523" x="190.4" class="st5" width="47.4" height="540"/>
		<rect id="rect4525" x="546.2" class="st5" width="47.4" height="540"/>
		<rect id="rect4527" x="681.6" class="st5" width="78.1" height="540"/>
		<rect id="rect4529" x="844.8" class="st5" width="64.1" height="540"/>
		<rect id="rect4511" y="465" class="st6" width="960" height="75"/>
		
			<path id="path4513" inkscape:flatsided="false" inkscape:randomized="0" inkscape:rounded="0" inkscape:transform-center-y="-2.7474222e-006" sodipodi:arg1="0.78539816" sodipodi:arg2="1.0995574" sodipodi:cx="-219.0092" sodipodi:cy="85.801598" sodipodi:r1="18.49939" sodipodi:r2="14.330576" sodipodi:sides="10" sodipodi:type="star" class="st6" d="
			M283.1,518.3l-16.9-8l-15.5,10.4l-8.9-16.4l-18.6-0.6l2.4-18.5l-14.7-11.5l12.8-13.6l-5.1-17.9l18.3-3.4l6.4-17.5l16.9,8
			l15.5-10.4l8.9,16.4l18.6,0.6l-2.4,18.5l14.7,11.5l-12.8,13.6l5.1,17.9l-18.3,3.4L283.1,518.3z"/>
		
			<path id="path4515" inkscape:flatsided="false" inkscape:randomized="0" inkscape:rounded="0" inkscape:transform-center-y="-4.2420583e-006" sodipodi:arg1="0.78539816" sodipodi:arg2="1.0995574" sodipodi:cx="-219.0092" sodipodi:cy="85.801598" sodipodi:r1="18.49939" sodipodi:r2="14.330576" sodipodi:sides="10" sodipodi:type="star" class="st6" d="
			M333.7,504.4l-11.1-5.3l-10.2,6.9l-5.9-10.8l-12.3-0.4l1.6-12.2l-9.7-7.6l8.4-8.9l-3.4-11.8l12.1-2.3l4.2-11.5l11.1,5.3l10.2-6.9
			l5.9,10.8l12.3,0.4l-1.6,12.2l9.7,7.6l-8.4,8.9l3.4,11.8l-12.1,2.3L333.7,504.4z"/>
		
			<path id="path4517" inkscape:flatsided="false" inkscape:randomized="0" inkscape:rounded="0" inkscape:transform-center-y="-4.2420583e-006" sodipodi:arg1="0.78539816" sodipodi:arg2="1.0995574" sodipodi:cx="-219.0092" sodipodi:cy="85.801598" sodipodi:r1="18.49939" sodipodi:r2="14.330576" sodipodi:sides="10" sodipodi:type="star" class="st6" d="
			M649.5,493.6l-11.1-5.3l-10.2,6.9l-5.9-10.8l-12.3-0.4l1.6-12.2l-9.7-7.6l8.4-8.9l-3.4-11.8l12.1-2.3l4.2-11.5l11.1,5.3l10.2-6.9
			l5.9,10.8l12.3,0.4l-1.6,12.2l9.7,7.6l-8.4,8.9l3.4,11.8l-12.1,2.3L649.5,493.6z"/>
		
			<path id="path4519" inkscape:flatsided="false" inkscape:randomized="0" inkscape:rounded="0" inkscape:transform-center-x="1.3828321e-006" inkscape:transform-center-y="-5.3380463e-006" sodipodi:arg1="0.78539816" sodipodi:arg2="1.0995574" sodipodi:cx="-219.0092" sodipodi:cy="85.801598" sodipodi:r1="18.49939" sodipodi:r2="14.330576" sodipodi:sides="10" sodipodi:type="star" class="st6" d="
			M802.9,507.5l-15.8-10l-16.6,8.5l-6.9-17.4l-18.4-2.9l4.6-18.1l-13.2-13.2l14.4-11.9l-2.9-18.4l18.6-1.2l8.5-16.6l15.8,10
			l16.6-8.5l6.9,17.4l18.4,2.9l-4.6,18.1l13.2,13.2l-14.4,11.9l2.9,18.4l-18.6,1.2L802.9,507.5z"/>
		<rect id="rect4531" x="48.5" y="223.8" class="st5" width="75.7" height="8.3"/>
		<rect id="rect4533" x="48.5" y="156.5" class="st5" width="8.3" height="75.7"/>
		<rect id="rect4535" x="119.5" y="138.8" class="st5" width="75.7" height="11.8"/>
		<rect id="rect4537" x="195.8" y="127.6" class="st5" width="75.7" height="8.8"/>
		<rect id="rect4539" x="262.7" y="100.8" class="st5" width="8.8" height="35.6"/>
		<rect id="rect4541" x="224.5" y="248.3" class="st5" width="75.7" height="8.8"/>
		<rect id="rect4543" x="291.3" y="221.5" class="st5" width="8.8" height="35.6"/>
		<rect id="rect4545" x="224.5" y="345.7" class="st5" width="43.9" height="3.9"/>
		<rect id="rect4547" x="161.3" y="283" class="st5" width="43.9" height="3.9"/>
		<rect id="rect4549" x="500.4" y="124.7" class="st5" width="71.5" height="10"/>
		<rect id="rect4551" x="500.4" y="94.2" class="st5" width="10" height="40.5"/>
		<rect id="rect4553" x="464.1" y="112.2" class="st5" width="40.7" height="5.7"/>
		<rect id="rect4555" x="464.1" y="94.9" class="st5" width="5.7" height="23.1"/>
		<rect id="rect4557" x="581.3" y="152.3" class="st5" width="71.5" height="10"/>
		<rect id="rect4559" x="642.8" y="98.4" class="st5" width="10" height="63.9"/>
		<rect id="rect4561" x="651.8" y="237.1" class="st5" width="40.7" height="5.7"/>
		<rect id="rect4563" x="651.8" y="214.1" class="st5" width="5.7" height="28.6"/>
		<rect id="rect4565" x="729.3" y="189.6" class="st5" width="40.7" height="5.7"/>
		<rect id="rect4567" x="764.3" y="159" class="st5" width="5.7" height="36.3"/>
		<rect id="rect4569" x="863.1" y="209.5" class="st5" width="71.5" height="10"/>
		<rect id="rect4573" class="st6" width="960" height="72.6"/>
		<rect id="rect4575" x="245.6" y="19.7" class="st6" width="714.4" height="72.6"/>
		<rect id="rect4577" x="599.8" y="41.4" class="st6" width="211.2" height="72.6"/>
		<rect id="rect4579" x="207.6" y="66.6" class="st6" width="106.6" height="44.9"/>
		<rect id="rect4581" x="8" y="125.2" class="st6" width="106.6" height="53.1"/>
		<rect id="rect4583" x="258.5" y="192.2" class="st6" width="74.5" height="37"/>
		<rect id="rect4585" x="445.5" y="68.3" class="st6" width="74.5" height="37"/>
		<rect id="rect4587" x="626.8" y="184" class="st6" width="63.6" height="37"/>
		<rect id="rect4589" x="731.4" y="134.6" class="st6" width="63.6" height="37"/>
		<path id="path4591" inkscape:connector-curvature="0" class="st7" d="M428.7,228.1c-16.8,2.1-28.7,17.4-26.6,34.2l0,0
			c2.1,16.8,17.4,28.7,34.2,26.6c1.4-0.2,2.7-0.5,4-0.8c-15.3-0.2-28.2-11.6-30.1-26.8c-1.9-15.2,7.7-29.5,22.5-33.4
			C431.4,227.9,430,228,428.7,228.1L428.7,228.1z"/>
		<circle id="path4739" class="st7" cx="798.1" cy="219.7" r="1.8"/>
		<circle id="circle4741" class="st7" cx="929.8" cy="128.1" r="1.8"/>
		<circle id="circle4743" class="st7" cx="931.4" cy="269.5" r="1.8"/>
		<circle id="circle4745" class="st7" cx="774.3" cy="234.5" r="1.8"/>
		<circle id="circle4747" class="st7" cx="661.3" cy="332.1" r="1.8"/>
		<circle id="circle4749" class="st7" cx="614.5" cy="256.2" r="1.8"/>
		<circle id="circle4751" class="st7" cx="522.2" cy="150.4" r="1.8"/>
		<circle id="circle4753" class="st7" cx="382.3" cy="236.2" r="1.8"/>
		<circle id="circle4755" class="st7" cx="491.4" cy="318.5" r="1.8"/>
		<circle id="circle4757" class="st7" cx="390.1" cy="128.2" r="1.8"/>
		<circle id="circle4759" class="st7" cx="264.2" cy="177" r="1.8"/>
		<path id="circle4761" class="st7" d="M158.6,196.3c0.6,0,1.1,0.8,1.1,1.8s-0.5,1.8-1.1,1.8c-0.6,0-1.1-0.8-1.1-1.8
			S158,196.3,158.6,196.3z"/>
		<circle id="circle4763" class="st7" cx="174.9" cy="336.4" r="1.8"/>
		<circle id="circle4765" class="st7" cx="27" cy="277.1" r="1.8"/>
		<circle id="circle4767" class="st7" cx="35.1" cy="96.2" r="1.8"/>
		<path id="rect4769" inkscape:connector-curvature="0" sodipodi:nodetypes="cccc" class="st7" d="M388.6,199.1l63.7-29.1L390,201.4
			C384.7,203.4,383.8,202,388.6,199.1L388.6,199.1z"/>
		<path id="path4772" inkscape:connector-curvature="0" sodipodi:nodetypes="cccc" class="st7" d="M809.8,159.9l24.6-19.4
			l-24.5,20.6C808,162.5,807.9,161.8,809.8,159.9L809.8,159.9z"/>
	</g>
</g>
</svg>
